<?xml version="1.0" standalone="no"?>
<!DOCTYPE svg PUBLIC "-//W3C//DTD SVG 20010904//EN"
 "http://www.w3.org/TR/2001/REC-SVG-20010904/DTD/svg10.dtd">
<svg version="1.0" xmlns="http://www.w3.org/2000/svg"
 width="412.000000pt" height="412.000000pt" viewBox="0 0 432.000000 496.000000"
 preserveAspectRatio="xMidYMid meet">

<g transform="translate(0.000000,496.000000) scale(0.100000,-0.100000)"
fill="#00a5f3" stroke="none">
<path d="M2075 4938 c-16 -6 -464 -263 -995 -570 -736 -427 -975 -570 -1006
-603 -79 -83 -74 -5 -74 -1290 0 -1118 0 -1144 20 -1208 14 -44 30 -74 49 -90
33 -27 1952 -1140 1994 -1156 46 -18 157 -13 202 8 89 41 1942 1125 1972 1153
17 17 41 52 52 78 20 47 21 60 20 1231 -1 651 -1 1195 -1 1208 0 58 -62 97
-1077 680 l-983 564 -71 3 c-40 2 -85 -1 -102 -8z m396 -907 c337 -72 656
-257 872 -506 64 -75 187 -248 187 -263 -1 -6 -137 -86 -460 -270 l-58 -33
-23 37 c-128 208 -344 367 -584 430 -86 23 -120 27 -245 27 -124 0 -159 -4
-243 -26 -344 -92 -612 -359 -703 -702 -23 -86 -27 -120 -27 -245 0 -125 4
-159 27 -245 91 -343 359 -610 703 -702 84 -22 119 -26 243 -26 125 0 159 4
245 27 237 62 467 230 581 423 l25 42 125 -74 c68 -41 183 -108 254 -150 72
-43 132 -80 134 -83 6 -11 -89 -148 -166 -240 -218 -259 -538 -447 -892 -524
-85 -19 -133 -22 -306 -22 -174 0 -220 3 -307 22 -574 124 -1020 521 -1198
1067 -56 172 -69 263 -69 485 0 222 13 313 69 485 190 582 693 1000 1305 1085
109 15 401 4 511 -19z m1323 -1143 c-13 -62 -23 -116 -24 -120 0 -5 33 -8 74
-8 l75 0 10 53 c6 28 17 81 24 117 l13 65 97 3 c53 1 97 -1 97 -5 -1 -4 -11
-59 -24 -120 l-23 -113 43 0 44 0 0 -100 0 -100 -63 0 -64 0 -12 -57 c-7 -32
-15 -68 -18 -80 -5 -22 -3 -23 76 -23 l81 0 0 -100 0 -100 -99 0 -100 0 -10
-52 c-6 -29 -17 -82 -24 -118 l-13 -65 -97 -3 c-79 -2 -97 0 -97 12 0 7 9 58
20 111 11 53 20 101 20 106 0 5 -33 9 -74 9 l-74 0 -23 -120 -23 -120 -99 0
c-89 0 -98 2 -93 18 2 9 12 55 21 102 9 47 19 93 21 103 5 15 -2 17 -45 17
l-51 0 0 100 0 100 69 0 69 0 16 69 c9 39 16 75 16 80 0 7 -32 11 -85 11 l-85
0 0 100 0 100 104 0 c91 0 105 2 110 18 2 9 12 55 21 102 9 47 19 93 21 103 5
15 19 17 103 17 l98 0 -23 -112z"/>
<path d="M3721 2523 c-6 -21 -13 -57 -17 -81 l-7 -43 73 3 73 3 18 75 c10 41
18 76 19 78 0 1 -34 2 -75 2 l-74 0 -10 -37z"/>
</g>
</svg>
