<?xml version="1.0" standalone="no"?>
<!DOCTYPE svg PUBLIC "-//W3C//DTD SVG 20010904//EN"
 "http://www.w3.org/TR/2001/REC-SVG-20010904/DTD/svg10.dtd">
<svg version="1.0" xmlns="http://www.w3.org/2000/svg"
 width="412.000000pt" height="412.000000pt" viewBox="0 0 1810.000000 2500.000000"
 preserveAspectRatio="xMidYMid meet">

<g transform="translate(0.000000,2500.000000) scale(0.100000,-0.100000)"
fill="#00a5f3" stroke="none">
<path d="M3482 24980 c-95 -25 -162 -62 -236 -130 -72 -67 -128 -150 -155
-233 -20 -60 -2486 -15887 -2479 -15909 2 -5 563 993 1247 2219 684 1225 2069
3707 3078 5515 l1835 3287 -1339 2513 -1338 2513 -75 75 c-147 148 -340 202
-538 150z"/>
<path d="M8906 21465 c-142 -39 -269 -138 -347 -271 -83 -141 -8320 -14906
-8317 -14908 5 -4 11193 11256 11196 11268 2 12 -1869 3599 -1920 3678 -66
105 -200 200 -324 232 -75 19 -219 20 -288 1z"/>
<path d="M15052 19864 c-80 -21 -150 -58 -215 -111 -58 -48 -14827 -14912
-14827 -14923 0 -7 8133 -4590 8254 -4652 271 -137 625 -202 916 -169 218 25
376 70 565 161 66 32 1972 1093 4235 2358 3327 1859 4115 2303 4113 2318 -22
174 -2349 14598 -2363 14644 -51 174 -214 327 -396 374 -76 20 -210 20 -282 0z"/>
</g>
</svg>
