<?xml version="1.0" standalone="no"?>
<!DOCTYPE svg PUBLIC "-//W3C//DTD SVG 20010904//EN"
 "http://www.w3.org/TR/2001/REC-SVG-20010904/DTD/svg10.dtd">
<svg version="1.0" xmlns="http://www.w3.org/2000/svg"
 width="412.000000pt" height="412.000000pt" viewBox="0 0 412.000000 412.000000"
 preserveAspectRatio="xMidYMid meet">

<g transform="translate(0.000000,412.000000) scale(0.100000,-0.100000)"
fill="#00a5f3" stroke="none">
<path d="M985 4110 c-190 -8 -297 -26 -404 -66 -250 -94 -444 -299 -521 -549
-52 -173 -53 -182 -57 -1309 -5 -1158 0 -1346 41 -1511 75 -299 290 -529 581
-623 147 -47 135 -47 1445 -47 1222 0 1236 0 1330 21 241 54 429 179 554 368
97 146 138 278 157 501 7 87 9 504 6 1255 -4 1234 -2 1192 -65 1375 -86 249
-292 448 -552 534 -161 52 -185 53 -1300 56 -569 2 -1116 -1 -1215 -5z m-96
-616 c57 -19 140 -54 185 -79 70 -38 97 -47 186 -60 58 -8 137 -25 175 -36
442 -132 1004 -732 1166 -1244 40 -127 57 -159 113 -222 53 -59 128 -109 272
-181 54 -27 128 -71 164 -97 77 -57 292 -271 314 -313 14 -27 14 -31 -3 -46
-26 -24 -106 -43 -231 -56 -58 -6 -113 -13 -122 -16 -38 -11 -33 -16 177 -166
153 -110 267 -217 295 -279 39 -86 27 -88 -101 -15 -52 29 -139 78 -194 109
-190 105 -411 282 -447 358 -20 40 -14 62 28 98 40 36 75 47 214 66 179 25
171 20 103 69 -93 68 -140 92 -292 150 -80 31 -162 68 -184 83 -88 61 -140
143 -319 498 -94 187 -193 378 -221 425 -92 153 -286 333 -542 503 -188 125
-224 139 -375 147 -134 8 -136 8 -246 76 -125 77 -250 118 -293 94 -12 -6 -21
-17 -21 -26 0 -27 38 -89 109 -180 81 -102 118 -167 160 -281 32 -88 100 -226
180 -368 28 -49 51 -99 51 -109 0 -11 -18 -74 -39 -140 -47 -145 -65 -260 -59
-370 9 -130 64 -286 103 -286 23 0 41 37 69 142 36 138 73 202 128 221 29 10
41 -7 254 -373 43 -74 118 -190 167 -258 49 -67 87 -128 85 -133 -5 -15 -136
90 -239 192 -46 46 -115 130 -154 187 -38 56 -74 101 -79 99 -6 -2 -21 -39
-33 -81 -38 -131 -79 -176 -160 -176 -83 0 -149 83 -204 260 -22 69 -24 91
-23 290 0 202 2 221 28 314 l27 100 -21 25 c-58 73 -104 156 -150 273 -72 184
-96 229 -210 379 -130 173 -150 213 -150 299 0 85 22 127 81 158 38 20 53 23
109 17 36 -3 112 -22 169 -41z m372 -467 c71 -37 99 -119 64 -187 -12 -23 -22
-30 -45 -30 -24 0 -36 9 -69 58 -21 32 -58 70 -80 85 -46 30 -50 48 -21 77 28
28 95 26 151 -3z"/>
</g>
</svg>
